<svg width="37" height="36" viewBox="0 0 37 36" fill="none" xmlns="http://www.w3.org/2000/svg">
<rect x="0.5" width="36" height="36" rx="18" fill="black"/>
<path d="M18.4821 10.4767C19.4478 10.4767 20.6695 9.83423 21.3908 8.98131C22.0424 8.20592 22.5194 7.12038 22.5194 6.03485C22.5194 5.89085 22.5078 5.73577 22.4729 5.625C21.3908 5.66931 20.0994 6.33392 19.3198 7.23115C18.7032 7.91792 18.1447 8.98131 18.1447 10.0779C18.1447 10.233 18.168 10.3992 18.1912 10.4545C18.2611 10.4656 18.3658 10.4767 18.4821 10.4767ZM15.0731 26.6712C16.3995 26.6712 16.9812 25.7961 18.6334 25.7961C20.2855 25.7961 20.6811 26.6379 22.1471 26.6379C23.6131 26.6379 24.5555 25.3308 25.4747 24.0459C26.4985 22.5727 26.9174 21.1327 26.9523 21.0662C26.8592 21.0441 24.0901 19.9253 24.0901 16.8127C24.0901 14.1099 26.2775 12.8915 26.3938 12.8028C24.9511 10.7647 22.7521 10.7204 22.1587 10.7204C20.5415 10.7204 19.2151 11.6841 18.3774 11.6841C17.4815 11.6841 16.2948 10.7758 14.8869 10.7758C12.2109 10.7758 9.5 12.9468 9.5 17.0342C9.5 19.5708 10.5122 22.2625 11.7455 24.0016C12.8043 25.4748 13.7351 26.6822 15.0731 26.6822V26.6712Z" fill="white"/>
</svg>
