<svg width="25" height="25" viewBox="0 0 25 25" fill="currentColor" xmlns="http://www.w3.org/2000/svg">
<path fill-rule="evenodd" clip-rule="evenodd" d="M3.56641 9.57383V17.4485C3.56641 19.3065 3.56641 20.2355 3.93105 20.6578C4.24731 21.0241 4.72088 21.2154 5.20282 21.1713C5.75847 21.1206 6.4035 20.452 7.69357 19.1149L8.62269 18.152C8.97071 17.7912 9.14473 17.6109 9.3496 17.4818C9.53122 17.3673 9.73008 17.2829 9.93856 17.2316C10.1737 17.1738 10.4243 17.1738 10.9256 17.1738H15.1664C17.4066 17.1738 18.5267 17.1738 19.3824 16.7379C20.135 16.3544 20.7469 15.7424 21.1304 14.9898C21.5664 14.1341 21.5664 13.014 21.5664 10.7738V9.57383C21.5664 7.33362 21.5664 6.21351 21.1304 5.35787C20.7469 4.60522 20.135 3.9933 19.3824 3.6098C18.5267 3.17383 17.4066 3.17383 15.1664 3.17383H9.96641C7.7262 3.17383 6.60609 3.17383 5.75044 3.6098C4.9978 3.9933 4.38587 4.60522 4.00238 5.35787C3.56641 6.21351 3.56641 7.33362 3.56641 9.57383ZM8.56641 11.1738C9.11869 11.1738 9.56641 10.7261 9.56641 10.1738C9.56641 9.62154 9.11869 9.17383 8.56641 9.17383C8.01412 9.17383 7.56641 9.62154 7.56641 10.1738C7.56641 10.7261 8.01412 11.1738 8.56641 11.1738ZM13.5664 10.1738C13.5664 10.7261 13.1187 11.1738 12.5664 11.1738C12.0141 11.1738 11.5664 10.7261 11.5664 10.1738C11.5664 9.62154 12.0141 9.17383 12.5664 9.17383C13.1187 9.17383 13.5664 9.62154 13.5664 10.1738ZM16.5664 11.1738C17.1187 11.1738 17.5664 10.7261 17.5664 10.1738C17.5664 9.62154 17.1187 9.17383 16.5664 9.17383C16.0141 9.17383 15.5664 9.62154 15.5664 10.1738C15.5664 10.7261 16.0141 11.1738 16.5664 11.1738Z" fill="white"/>
</svg>
