<svg width="29" height="29" viewBox="0 0 29 29" fill="none" xmlns="http://www.w3.org/2000/svg">
    <g clip-path="url(#clip0_1_36933)">
        <path fill-rule="evenodd" clip-rule="evenodd"
              d="M4.60067 24.0128C-0.866673 18.5454 -0.866673 9.68113 4.60067 4.21379C10.068 -1.25355 18.9323 -1.25355 24.3997 4.21379C29.867 9.68113 29.867 18.5454 24.3997 24.0128C18.9323 29.4801 10.068 29.4801 4.60067 24.0128ZM11.5303 9.16353C10.9836 8.6168 10.0971 8.6168 9.55041 9.16353C9.00368 9.71027 9.00368 10.5967 9.55041 11.1434L12.5203 14.1133L9.55041 17.0831C9.00368 17.6299 9.00368 18.5163 9.55041 19.063C10.0971 19.6098 10.9836 19.6098 11.5303 19.063L14.5002 16.0932L17.47 19.063C18.0167 19.6098 18.9032 19.6098 19.4499 19.063C19.9966 18.5163 19.9966 17.6299 19.4499 17.0831L16.4801 14.1133L19.4499 11.1434C19.9966 10.5967 19.9966 9.71027 19.4499 9.16353C18.9032 8.6168 18.0167 8.6168 17.47 9.16353L14.5002 12.1334L11.5303 9.16353Z"
              fill="#2F2F2F"/>
        <path
            d="M9.55041 9.16353C10.0971 8.6168 10.9836 8.6168 11.5303 9.16353L14.5002 12.1334L17.47 9.16353C18.0167 8.6168 18.9032 8.6168 19.4499 9.16353C19.9966 9.71027 19.9966 10.5967 19.4499 11.1434L16.4801 14.1133L19.4499 17.0831C19.9966 17.6299 19.9966 18.5163 19.4499 19.063C18.9032 19.6098 18.0167 19.6098 17.47 19.063L14.5002 16.0932L11.5303 19.063C10.9836 19.6098 10.0971 19.6098 9.55041 19.063C9.00368 18.5163 9.00368 17.6299 9.55041 17.0831L12.5203 14.1133L9.55041 11.1434C9.00368 10.5967 9.00368 9.71027 9.55041 9.16353Z"
            fill="white"/>
    </g>
    <defs>
        <clipPath id="clip0_1_36933">
            <rect width="28" height="28" fill="white" transform="translate(0.5 0.113281)"/>
        </clipPath>
    </defs>
</svg>
