<svg width="25" height="24" viewBox="0 0 25 24" fill="none" xmlns="http://www.w3.org/2000/svg">
    <path d="M12.3379 2C6.81504 2 2.33789 6.47715 2.33789 12C2.33789 17.5228 6.81504 22 12.3379 22C17.8607 22 22.3379 17.5228 22.3379 12C22.3379 6.47715 17.8607 2 12.3379 2Z"
          fill="#3E3E42"/>
    <path fill-rule="evenodd" clip-rule="evenodd"
          d="M8.63078 10.2929C9.02131 9.90237 9.65447 9.90237 10.045 10.2929L12.3379 12.5858L14.6308 10.2929C15.0213 9.90237 15.6545 9.90237 16.045 10.2929C16.4355 10.6834 16.4355 11.3166 16.045 11.7071L13.045 14.7071C12.6545 15.0976 12.0213 15.0976 11.6308 14.7071L8.63078 11.7071C8.24026 11.3166 8.24026 10.6834 8.63078 10.2929Z"
          fill="white"/>
</svg>
