<svg width="25" height="24" viewBox="0 0 25 24" fill="none" xmlns="http://www.w3.org/2000/svg">
    <path d="M8.39001 14.0586H5.31C4.17 14.0586 3.25 14.9786 3.25 16.1186V19.1986C3.25 20.3386 4.17 21.2586 5.31 21.2586H8.39001C9.53001 21.2586 10.45 20.3386 10.45 19.1986V16.1186C10.44 14.9786 9.52001 14.0586 8.39001 14.0586Z"
          stroke="white" stroke-width="1.5" stroke-linecap="round" stroke-linejoin="round"/>
    <path d="M10.4395 14.0614L14.5595 9.94141" stroke="white" stroke-width="1.5" stroke-linecap="round"
          stroke-linejoin="round"/>
    <path d="M15.5801 8.92188V12.0019" stroke="white" stroke-width="1.5" stroke-linecap="round"
          stroke-linejoin="round"/>
    <path d="M15.58 8.92188H12.5" stroke="white" stroke-width="1.5" stroke-linecap="round" stroke-linejoin="round"/>
    <path d="M16.2305 16.0195H13.2305C12.8205 16.0195 12.4805 16.3595 12.4805 16.7695C12.4805 17.1795 12.8205 17.5195 13.2305 17.5195H16.2305C16.6405 17.5195 16.9805 17.1795 16.9805 16.7695C16.9805 16.3595 16.6405 16.0195 16.2305 16.0195Z"
          fill="white"/>
    <path d="M21.7305 13.5195C21.3205 13.5195 20.9805 13.8595 20.9805 14.2695V14.7695C20.9805 15.4595 20.4205 16.0195 19.7305 16.0195H19.2305C18.8205 16.0195 18.4805 16.3595 18.4805 16.7695C18.4805 17.1795 18.8205 17.5195 19.2305 17.5195H19.7305C21.2505 17.5195 22.4805 16.2895 22.4805 14.7695V14.2695C22.4805 13.8595 22.1405 13.5195 21.7305 13.5195Z"
          fill="white"/>
    <path d="M21.7305 7.51953C21.3205 7.51953 20.9805 7.85953 20.9805 8.26953V11.2695C20.9805 11.6795 21.3205 12.0195 21.7305 12.0195C22.1405 12.0195 22.4805 11.6795 22.4805 11.2695V8.26953C22.4805 7.85953 22.1405 7.51953 21.7305 7.51953Z"
          fill="white"/>
    <path d="M19.7305 2.01953H19.2305C18.8205 2.01953 18.4805 2.35953 18.4805 2.76953C18.4805 3.17953 18.8205 3.51953 19.2305 3.51953H19.7305C20.4205 3.51953 20.9805 4.07953 20.9805 4.76953V5.26953C20.9805 5.67953 21.3205 6.01953 21.7305 6.01953C22.1405 6.01953 22.4805 5.67953 22.4805 5.26953V4.76953C22.4805 3.24953 21.2505 2.01953 19.7305 2.01953Z"
          fill="white"/>
    <path d="M16.2305 2.01953H13.2305C12.8205 2.01953 12.4805 2.35953 12.4805 2.76953C12.4805 3.17953 12.8205 3.51953 13.2305 3.51953H16.2305C16.6405 3.51953 16.9805 3.17953 16.9805 2.76953C16.9805 2.35953 16.6405 2.01953 16.2305 2.01953Z"
          fill="white"/>
    <path d="M10.2305 2.01953H9.73047C8.21047 2.01953 6.98047 3.24953 6.98047 4.76953V5.26953C6.98047 5.67953 7.32047 6.01953 7.73047 6.01953C8.14047 6.01953 8.48047 5.67953 8.48047 5.26953V4.76953C8.48047 4.07953 9.04047 3.51953 9.73047 3.51953H10.2305C10.6405 3.51953 10.9805 3.17953 10.9805 2.76953C10.9805 2.35953 10.6405 2.01953 10.2305 2.01953Z"
          fill="white"/>
    <path d="M7.73047 7.51953C7.32047 7.51953 6.98047 7.85953 6.98047 8.26953V11.2695C6.98047 11.6795 7.32047 12.0195 7.73047 12.0195C8.14047 12.0195 8.48047 11.6795 8.48047 11.2695V8.26953C8.48047 7.85953 8.14047 7.51953 7.73047 7.51953Z"
          fill="white"/>
</svg>
