<svg width="17" height="17" viewBox="0 0 17 17" fill="none" xmlns="http://www.w3.org/2000/svg">
    <g clip-path="url(#clip0_1_25971)">
        <path d="M8.55522 16.3984C12.9716 16.3984 16.5518 12.8167 16.5518 8.39844C16.5518 3.98016 12.9716 0.398438 8.55522 0.398438C4.13881 0.398438 0.558594 3.98016 0.558594 8.39844C0.558594 12.8167 4.13881 16.3984 8.55522 16.3984Z"
              fill="url(#paint0_linear_1_25971)"/>
        <path d="M10.6062 4.91406C8.98667 4.91406 8.56829 6.52081 8.55479 6.55457C8.54804 6.51406 8.1229 4.91406 6.50333 4.91406C4.88376 4.91406 3.88503 6.14951 4.04024 7.78326C4.1887 9.3495 8.50755 12.671 8.55479 12.7048C8.59528 12.671 12.9141 9.34275 13.0693 7.78326C13.2245 6.14951 12.2461 4.91406 10.6062 4.91406Z"
              fill="white"/>
    </g>
    <defs>
        <linearGradient id="paint0_linear_1_25971" x1="8.55522" y1="0.330927" x2="8.55522" y2="16.3309"
                        gradientUnits="userSpaceOnUse">
            <stop stop-color="#F9607C"/>
            <stop offset="0.5" stop-color="#F13D58"/>
            <stop offset="1" stop-color="#DF1630"/>
        </linearGradient>
        <clipPath id="clip0_1_25971">
            <rect width="16" height="16" fill="white" transform="translate(0.558594 0.398438)"/>
        </clipPath>
    </defs>
</svg>
