<svg width="37" height="36" viewBox="0 0 37 36" fill="none" xmlns="http://www.w3.org/2000/svg">
<path d="M36.5 18C36.5 27.9411 28.4411 36 18.5 36C8.55887 36 0.5 27.9411 0.5 18C0.5 8.05887 8.55887 0 18.5 0C28.4411 0 36.5 8.05887 36.5 18Z" fill="#FEE500"/>
<path d="M19.0539 9.81189C13.4538 9.81189 8.9375 13.4249 8.9375 17.8111C8.9375 20.6581 10.8163 23.1511 13.6344 24.5746L12.6806 28.1371C12.6626 28.1905 12.6598 28.2478 12.6726 28.3027C12.6854 28.3575 12.7131 28.4078 12.7528 28.4478C12.8107 28.4988 12.8852 28.5271 12.9624 28.5272C13.0264 28.5221 13.0871 28.4968 13.1358 28.455L17.2402 25.6875C17.8461 25.7711 18.4568 25.8145 19.0684 25.8175C24.6613 25.8175 29.1848 22.2045 29.1848 17.8111C29.1848 13.4176 24.6469 9.81189 19.0539 9.81189Z" fill="#392020"/>
<path d="M12.4774 16.5469H11.3718C11.2347 16.5509 11.0994 16.5158 10.9816 16.4458C10.9293 16.413 10.8843 16.3697 10.8495 16.3187C10.8146 16.2677 10.7907 16.2101 10.7792 16.1495C10.7757 16.111 10.7757 16.0724 10.7792 16.0339C10.7758 15.9619 10.7898 15.8902 10.82 15.8248C10.8502 15.7594 10.8957 15.7022 10.9527 15.6581C11.0786 15.5669 11.2307 15.5187 11.3862 15.5208H14.7174C14.8556 15.5159 14.9918 15.5538 15.1076 15.6292C15.1612 15.6605 15.2071 15.7034 15.2421 15.7546C15.2771 15.8059 15.3003 15.8642 15.31 15.9255C15.3135 15.9615 15.3135 15.9979 15.31 16.0339C15.3134 16.1069 15.2994 16.1797 15.2693 16.2462C15.2391 16.3128 15.1937 16.3712 15.1365 16.4168C15.0136 16.5079 14.863 16.5539 14.7102 16.5469H13.6408V20.3478C13.6451 20.4288 13.6326 20.5098 13.604 20.5856C13.5753 20.6615 13.5313 20.7307 13.4746 20.7886C13.4202 20.844 13.3548 20.8874 13.2826 20.9161C13.2104 20.9447 13.133 20.9579 13.0554 20.9548C12.9197 20.9587 12.7869 20.9153 12.6797 20.832C12.5776 20.7506 12.5083 20.6351 12.4846 20.5068C12.4774 20.454 12.4774 20.4006 12.4846 20.3478L12.4774 16.5469Z" fill="#FEE500"/>
<path d="M15.6295 15.8022C15.6613 15.6833 15.7359 15.5803 15.8391 15.5131C15.9489 15.4508 16.0742 15.4208 16.2004 15.4264H16.4749C16.6088 15.4216 16.7414 15.4542 16.8579 15.5204C16.9814 15.6034 17.0691 15.7298 17.1036 15.8744L18.5488 19.9572C18.5863 20.0637 18.6177 20.1723 18.6428 20.2824C18.6452 20.3281 18.6452 20.3739 18.6428 20.4196C18.6452 20.4901 18.6322 20.5602 18.6048 20.6251C18.5773 20.69 18.536 20.7481 18.4838 20.7954C18.4332 20.8473 18.3724 20.8882 18.3052 20.9156C18.2381 20.9429 18.1661 20.9561 18.0936 20.9544C17.9821 20.9654 17.8702 20.9387 17.7758 20.8784C17.6814 20.8181 17.6101 20.7278 17.5733 20.622L17.2698 19.7332H15.3694L15.0659 20.622C15.03 20.7299 14.9578 20.8219 14.8616 20.8826C14.7654 20.9432 14.6512 20.9685 14.5384 20.9544C14.4162 20.9576 14.2965 20.9193 14.1987 20.846C14.1035 20.7702 14.0393 20.6623 14.0181 20.5425C14.0143 20.5017 14.0143 20.4605 14.0181 20.4196C14.0057 20.3479 14.0057 20.2746 14.0181 20.2029C14.0181 20.1234 14.0687 20.0367 14.0976 19.9572L15.6295 15.8022ZM16.3521 16.7488L15.6656 18.9167H17.0313L16.3521 16.7488Z" fill="#FEE500"/>
<path d="M18.8082 16.0336C18.8009 15.8714 18.8581 15.7129 18.9672 15.5928C19.0227 15.5368 19.0893 15.4931 19.1628 15.4644C19.2362 15.4358 19.3148 15.4229 19.3936 15.4265C19.5289 15.4249 19.661 15.4681 19.7693 15.5494C19.8697 15.6341 19.9363 15.752 19.9572 15.8817C19.9643 15.9321 19.9643 15.9832 19.9572 16.0336V19.8345H21.9443C22.0821 19.8327 22.2175 19.8702 22.3345 19.9428C22.3872 19.9752 22.4324 20.0184 22.4672 20.0694C22.5021 20.1205 22.5258 20.1783 22.5369 20.2391C22.5369 20.2391 22.5369 20.3113 22.5369 20.3475C22.5403 20.4194 22.5263 20.4911 22.4962 20.5565C22.466 20.6219 22.4204 20.6792 22.3635 20.7232C22.2375 20.8145 22.0854 20.8626 21.9299 20.8605H19.4875C19.3319 20.8705 19.1773 20.83 19.0467 20.7449C18.9299 20.6576 18.852 20.5278 18.8299 20.3836C18.8246 20.3042 18.8246 20.2245 18.8299 20.1451L18.8082 16.0336Z" fill="#FEE500"/>
<path d="M22.6664 16.0341C22.6621 15.8724 22.7188 15.7151 22.8254 15.5934C22.9337 15.495 23.0726 15.4368 23.2187 15.4289C23.3648 15.421 23.5092 15.4638 23.6275 15.55C23.73 15.634 23.7992 15.7518 23.8225 15.8823C23.8261 15.9329 23.8261 15.9836 23.8225 16.0341V17.8045L25.6507 15.6945C25.7212 15.6225 25.796 15.555 25.8747 15.4922C25.949 15.448 26.0341 15.4254 26.1204 15.4271C26.2467 15.4264 26.3702 15.4642 26.4745 15.5355C26.5236 15.5686 26.5656 15.6113 26.5979 15.6609C26.6302 15.7106 26.6521 15.7662 26.6624 15.8246C26.6653 15.8389 26.6653 15.8537 26.6624 15.868C26.6589 15.8846 26.6589 15.9018 26.6624 15.9185C26.6621 15.9945 26.6422 16.0693 26.6046 16.1353C26.5662 16.2053 26.5202 16.2706 26.4673 16.3303L25.2678 17.6455L26.713 19.8856V19.9578C26.788 20.0614 26.8465 20.176 26.8864 20.2975V20.3336C26.8947 20.4173 26.8827 20.5018 26.8512 20.5799C26.8198 20.6579 26.7698 20.7271 26.7057 20.7816C26.5852 20.8727 26.4377 20.9211 26.2866 20.9189C26.1862 20.9231 26.0865 20.9006 25.9976 20.8538C25.9013 20.7893 25.822 20.7026 25.7664 20.601L24.4223 18.4331L23.7792 19.1052V20.3119C23.7835 20.4736 23.7268 20.631 23.6202 20.7527C23.5631 20.8085 23.4952 20.8521 23.4206 20.8807C23.3461 20.9092 23.2664 20.9223 23.1867 20.9189C23.0533 20.9217 22.9231 20.8783 22.8181 20.7961C22.7161 20.7147 22.6468 20.5993 22.623 20.4709C22.6159 20.4182 22.6159 20.3646 22.623 20.3119L22.6664 16.0341Z" fill="#FEE500"/>
</svg>
