<svg width="40" height="40" viewBox="0 0 40 40" fill="none" xmlns="http://www.w3.org/2000/svg">
<rect width="40" height="40" rx="20" fill="#985CFF"/>
<path fill-rule="evenodd" clip-rule="evenodd" d="M30.7071 26.2929C31.0976 26.6834 31.0976 27.3166 30.7071 27.7071L28.7071 29.7071C28.3166 30.0976 27.6834 30.0976 27.2929 29.7071C26.9024 29.3166 26.9024 28.6834 27.2929 28.2929L27.5858 28L24 28C23.4477 28 23 27.5523 23 27C23 26.4477 23.4477 26 24 26L27.5858 26L27.2929 25.7071C26.9024 25.3166 26.9024 24.6834 27.2929 24.2929C27.6834 23.9024 28.3166 23.9024 28.7071 24.2929L30.7071 26.2929Z" fill="white"/>
<path fill-rule="evenodd" clip-rule="evenodd" d="M10 16.8C10 15.1198 10 14.2798 10.327 13.638C10.6146 13.0735 11.0735 12.6146 11.638 12.327C12.2798 12 13.1198 12 14.8 12H25.2C26.8802 12 27.7202 12 28.362 12.327C28.9265 12.6146 29.3854 13.0735 29.673 13.638C30 14.2798 30 15.1198 30 16.8V20.2C30 20.48 30 20.62 29.9455 20.727C29.8976 20.8211 29.8211 20.8976 29.727 20.9455C29.62 21 29.48 21 29.2 21H27C23.6863 21 21 23.6863 21 27V27.2C21 27.48 21 27.62 20.9455 27.727C20.8976 27.8211 20.8211 27.8976 20.727 27.9455C20.62 28 20.48 28 20.2 28H14.8C13.1198 28 12.2798 28 11.638 27.673C11.0735 27.3854 10.6146 26.9265 10.327 26.362C10 25.7202 10 24.8802 10 23.2V16.8ZM14.1754 16.4343C14.4878 15.9789 15.1103 15.863 15.5657 16.1754L19.4343 18.8293C19.7752 19.0631 20.2248 19.0631 20.5657 18.8293L24.4343 16.1754C24.8897 15.863 25.5122 15.9789 25.8246 16.4343C26.137 16.8897 26.0211 17.5122 25.5657 17.8246L21.6971 20.4785C20.6744 21.18 19.3256 21.18 18.3029 20.4785L14.4343 17.8246C13.9789 17.5122 13.863 16.8897 14.1754 16.4343Z" fill="white"/>
</svg>
