<svg width="25" height="25" viewBox="0 0 25 25" fill="none" xmlns="http://www.w3.org/2000/svg">
<path fill-rule="evenodd" clip-rule="evenodd" d="M3.06641 9.57383C3.06641 7.33362 3.06641 6.21351 3.50238 5.35787C3.88587 4.60522 4.4978 3.9933 5.25044 3.6098C6.10609 3.17383 7.2262 3.17383 9.46641 3.17383H14.6664C16.9066 3.17383 18.0267 3.17383 18.8824 3.6098C19.635 3.9933 20.2469 4.60522 20.6304 5.35787C21.0664 6.21351 21.0664 7.33362 21.0664 9.57383V14.7738C21.0664 17.014 21.0664 18.1341 20.6304 18.9898C20.2469 19.7424 19.635 20.3544 18.8824 20.7379C18.0267 21.1738 16.9066 21.1738 14.6664 21.1738H9.46641C7.2262 21.1738 6.10609 21.1738 5.25044 20.7379C4.4978 20.3544 3.88587 19.7424 3.50238 18.9898C3.06641 18.1341 3.06641 17.014 3.06641 14.7738V9.57383ZM6.06641 10.1738C6.06641 9.62154 6.51412 9.17383 7.06641 9.17383H13.0664C13.6187 9.17383 14.0664 9.62154 14.0664 10.1738C14.0664 10.7261 13.6187 11.1738 13.0664 11.1738H7.06641C6.51412 11.1738 6.06641 10.7261 6.06641 10.1738ZM7.06641 13.1738C6.51412 13.1738 6.06641 13.6215 6.06641 14.1738C6.06641 14.7261 6.51412 15.1738 7.06641 15.1738H9.06641C9.61869 15.1738 10.0664 14.7261 10.0664 14.1738C10.0664 13.6215 9.61869 13.1738 9.06641 13.1738H7.06641Z" fill="white"/>
</svg>
