<svg width="25" height="25" viewBox="0 0 25 25" fill="none" xmlns="http://www.w3.org/2000/svg">
<path d="M15.1513 19.1554C15.332 18.6336 14.8687 18.1738 14.3164 18.1738H10.3164C9.76412 18.1738 9.30082 18.6336 9.48154 19.1554C9.62872 19.5805 9.871 19.9711 10.1951 20.2951C10.7577 20.8578 11.5208 21.1738 12.3164 21.1738C13.1121 21.1738 13.8751 20.8578 14.4377 20.2951C14.7618 19.9711 15.0041 19.5805 15.1513 19.1554Z" fill="white"/>
<path d="M4.31641 13.5411C4.31641 12.7032 4.78985 11.9371 5.53936 11.5624C6.03883 11.3126 6.42538 10.8832 6.62145 10.3604L8.34309 5.76933C8.92855 4.20812 10.421 3.17383 12.0884 3.17383H12.5444C14.2118 3.17383 15.7043 4.20812 16.2897 5.76933L18.0114 10.3604C18.2074 10.8832 18.594 11.3126 19.0935 11.5624C19.843 11.9371 20.3164 12.7032 20.3164 13.5411V14.0837C20.3164 15.7903 18.9329 17.1738 17.2262 17.1738H7.40658C5.69992 17.1738 4.31641 15.7903 4.31641 14.0837V13.5411Z" fill="white"/>
</svg>
