<svg width="25" height="24" viewBox="0 0 25 24" fill="none" xmlns="http://www.w3.org/2000/svg">
    <path d="M5.27529 14.6582L3.55957 19.6735C3.29072 20.4594 4.04163 21.2115 4.82792 20.9439L9.84987 19.2347C10.2845 19.0868 10.6795 18.841 11.0042 18.5164L11.1569 18.3638C11.3522 18.1685 11.3523 17.8519 11.157 17.6566L6.85408 13.3535C6.65884 13.1582 6.34231 13.1582 6.14703 13.3534L5.99288 13.5075C5.66899 13.8313 5.42352 14.2249 5.27529 14.6582Z"
          fill="white"/>
    <path d="M13.3344 6.83395C13.1386 6.63813 12.8209 6.63877 12.6259 6.83538L8.3501 11.1459C8.15619 11.3414 8.15682 11.6569 8.35152 11.8516L12.6544 16.1547C12.8502 16.3505 13.1679 16.3499 13.363 16.1533L17.6387 11.8427C17.8326 11.6472 17.832 11.3318 17.6373 11.1371L13.3344 6.83395Z"
          fill="white"/>
    <path d="M15.6186 3.88267L14.8535 4.64782C14.6582 4.84309 14.6582 5.15965 14.8535 5.35491L19.1564 9.65802C19.3516 9.8533 19.6682 9.85329 19.8635 9.65802L20.6288 8.89264C21.8003 7.72107 21.8003 5.82168 20.6288 4.65013L19.8613 3.88264C18.6897 2.71098 16.7901 2.711 15.6186 3.88267Z"
          fill="white"/>
</svg>
