<svg width="36" height="36" viewBox="0 0 29 28" fill="none" xmlns="http://www.w3.org/2000/svg">
    <g clip-path="url(#clip0_1_27481)">
        <path fill-rule="evenodd" clip-rule="evenodd"
              d="M0.337891 14C0.337891 6.26801 6.6059 0 14.3379 0C22.0699 0 28.3379 6.26801 28.3379 14C28.3379 21.732 22.0699 28 14.3379 28C6.6059 28 0.337891 21.732 0.337891 14ZM15.7379 8.4C15.7379 7.6268 15.1111 7 14.3379 7C13.5647 7 12.9379 7.6268 12.9379 8.4V12.6H8.73789C7.96469 12.6 7.33789 13.2268 7.33789 14C7.33789 14.7732 7.96469 15.4 8.73789 15.4H12.9379V19.6C12.9379 20.3732 13.5647 21 14.3379 21C15.1111 21 15.7379 20.3732 15.7379 19.6V15.4H19.9379C20.7111 15.4 21.3379 14.7732 21.3379 14C21.3379 13.2268 20.7111 12.6 19.9379 12.6H15.7379V8.4Z"
              fill="#2F2F2F"/>
        <path d="M14.3379 7C15.1111 7 15.7379 7.6268 15.7379 8.4V12.6H19.9379C20.7111 12.6 21.3379 13.2268 21.3379 14C21.3379 14.7732 20.7111 15.4 19.9379 15.4H15.7379V19.6C15.7379 20.3732 15.1111 21 14.3379 21C13.5647 21 12.9379 20.3732 12.9379 19.6V15.4H8.73789C7.96469 15.4 7.33789 14.7732 7.33789 14C7.33789 13.2268 7.96469 12.6 8.73789 12.6H12.9379V8.4C12.9379 7.6268 13.5647 7 14.3379 7Z"
              fill="white"/>
    </g>
    <defs>
        <clipPath id="clip0_1_27481">
            <rect width="36" height="36" fill="white" transform="translate(0.337891)"/>
        </clipPath>
    </defs>
</svg>
