<svg width="25" height="25" viewBox="0 0 25 25" fill="none" xmlns="http://www.w3.org/2000/svg">
<path d="M18.3163 10.2342C18.2243 9.78478 18.1075 9.34075 17.9663 8.90423C17.7823 8.38743 17.5652 7.88305 17.3163 7.39423C16.4639 5.61663 15.2714 4.02328 13.8063 2.70423C13.4128 2.36099 12.9084 2.17188 12.3863 2.17188C11.8642 2.17188 11.3597 2.36099 10.9663 2.70423C9.49394 4.02143 8.29459 5.6149 7.43626 7.39423C7.20606 7.88381 7.00895 8.38828 6.84626 8.90423C6.70626 9.35423 6.58626 9.80423 6.49626 10.2442C6.15863 12.2235 6.28876 14.2543 6.87626 16.1742H17.8763C18.4839 14.2556 18.6346 12.2214 18.3163 10.2342ZM12.3863 12.7042C11.8435 12.7062 11.3124 12.5469 10.8603 12.2466C10.4081 11.9463 10.0554 11.5185 9.84677 11.0174C9.63814 10.5163 9.58304 9.96459 9.68844 9.43215C9.79385 8.89971 10.055 8.41058 10.4388 8.02678C10.8226 7.64298 11.3118 7.38182 11.8442 7.27641C12.3766 7.17101 12.9284 7.22611 13.4295 7.43474C13.9305 7.64336 14.3584 7.99611 14.6587 8.44823C14.959 8.90034 15.1183 9.43147 15.1163 9.97423C15.1163 10.3327 15.0457 10.6877 14.9085 11.0189C14.7713 11.3502 14.5702 11.6511 14.3167 11.9046C14.0632 12.1581 13.7622 12.3592 13.431 12.4964C13.0998 12.6336 12.7448 12.7042 12.3863 12.7042Z" fill="white"/>
<path d="M6.94639 18.8134C6.67128 17.9876 6.46065 17.1419 6.31638 16.2835C6.2906 16.1547 6.2291 16.0358 6.13891 15.9403C6.04873 15.8448 5.93349 15.7765 5.80639 15.7434C5.67938 15.7085 5.54504 15.7106 5.41923 15.7496C5.29342 15.7886 5.18139 15.8629 5.09639 15.9635L4.82639 16.2735C4.61774 16.4974 4.46326 16.7662 4.37484 17.0592C4.28642 17.3522 4.26642 17.6616 4.31639 17.9635L4.91639 20.9035C4.97127 21.1669 5.09167 21.412 5.26646 21.6166C5.44125 21.8211 5.66478 21.9783 5.91639 22.0735C6.16415 22.166 6.43108 22.1953 6.693 22.1586C6.95491 22.1219 7.20355 22.0205 7.41638 21.8635L7.58638 21.7334C7.72151 21.6367 7.81716 21.4944 7.85574 21.3327C7.89432 21.1711 7.87324 21.0009 7.79638 20.8535C7.47252 20.1911 7.18868 19.5098 6.94639 18.8134Z" fill="white"/>
<path d="M17.7866 18.8134C18.0752 17.9887 18.2992 17.143 18.4566 16.2835C18.4824 16.1547 18.5439 16.0358 18.634 15.9403C18.7242 15.8448 18.8395 15.7765 18.9666 15.7434C19.0936 15.7085 19.2279 15.7106 19.3537 15.7496C19.4795 15.7886 19.5916 15.8629 19.6766 15.9635L19.9466 16.2735C20.1412 16.5045 20.281 16.7765 20.3555 17.0692C20.4299 17.3619 20.4371 17.6676 20.3766 17.9635L19.7766 20.9035C19.7217 21.1669 19.6013 21.412 19.4265 21.6166C19.2517 21.8211 19.0282 21.9783 18.7766 22.0735C18.5977 22.1413 18.4078 22.1752 18.2166 22.1735C17.8783 22.1721 17.5493 22.0636 17.2766 21.8635L17.1066 21.7334C16.9714 21.6367 16.8758 21.4944 16.8372 21.3327C16.7986 21.1711 16.8197 21.0009 16.8966 20.8535C17.2382 20.194 17.5355 19.5124 17.7866 18.8134Z" fill="white"/>
<path d="M17.4465 17.1038C17.3965 17.2438 17.3565 17.3938 17.3065 17.5438C17.1094 18.3278 16.7995 19.0789 16.3865 19.7738C16.3583 19.8072 16.3348 19.8441 16.3165 19.8837C16.1147 20.1554 15.8524 20.3765 15.5503 20.5292C15.2483 20.6818 14.9149 20.7623 14.5765 20.7638H10.2264C9.88658 20.7643 9.55149 20.6837 9.24891 20.5289C8.94633 20.3742 8.68497 20.1497 8.48645 19.8738C8.45753 19.841 8.43391 19.8039 8.41645 19.7638C8.00359 19.0724 7.69366 18.3246 7.49645 17.5438C7.44645 17.3838 7.40645 17.2338 7.35645 17.0938L17.4465 17.1038Z" fill="white"/>
</svg>
