<svg width="25" height="25" viewBox="0 0 25 25" fill="none" xmlns="http://www.w3.org/2000/svg">
<path fill-rule="evenodd" clip-rule="evenodd" d="M17.3164 10.8047C17.3164 12.377 16.798 13.8283 15.9228 14.9969L20.0235 19.0976C20.414 19.4881 20.414 20.1213 20.0235 20.5118C19.633 20.9023 18.9998 20.9023 18.6093 20.5118L14.5086 16.4111C13.34 17.2863 11.8887 17.8047 10.3164 17.8047C6.45041 17.8047 3.31641 14.6707 3.31641 10.8047C3.31641 6.93869 6.45041 3.80469 10.3164 3.80469C14.1824 3.80469 17.3164 6.93869 17.3164 10.8047ZM10.3164 15.8047C13.0778 15.8047 15.3164 13.5661 15.3164 10.8047C15.3164 8.04326 13.0778 5.80469 10.3164 5.80469C7.55498 5.80469 5.31641 8.04326 5.31641 10.8047C5.31641 13.5661 7.55498 15.8047 10.3164 15.8047Z" fill="#CCCCCC"/>
</svg>
