<svg width="25" height="25" viewBox="0 0 25 25" fill="none" xmlns="http://www.w3.org/2000/svg">
<path fill-rule="evenodd" clip-rule="evenodd" d="M3.31641 6.17383C3.31641 4.51697 4.65955 3.17383 6.31641 3.17383H8.31641C9.97326 3.17383 11.3164 4.51697 11.3164 6.17383V8.17383C11.3164 9.83068 9.97326 11.1738 8.31641 11.1738H6.31641C4.65955 11.1738 3.31641 9.83068 3.31641 8.17383V6.17383ZM6.31641 5.17383H8.31641C8.86869 5.17383 9.31641 5.62154 9.31641 6.17383V8.17383C9.31641 8.72611 8.86869 9.17383 8.31641 9.17383H6.31641C5.76412 9.17383 5.31641 8.72611 5.31641 8.17383V6.17383C5.31641 5.62154 5.76412 5.17383 6.31641 5.17383Z" fill="white"/>
<path fill-rule="evenodd" clip-rule="evenodd" d="M13.3164 6.17383C13.3164 4.51697 14.6596 3.17383 16.3164 3.17383H18.3164C19.9733 3.17383 21.3164 4.51697 21.3164 6.17383V8.17383C21.3164 9.83068 19.9733 11.1738 18.3164 11.1738H16.3164C14.6596 11.1738 13.3164 9.83068 13.3164 8.17383V6.17383ZM16.3164 5.17383H18.3164C18.8687 5.17383 19.3164 5.62154 19.3164 6.17383V8.17383C19.3164 8.72611 18.8687 9.17383 18.3164 9.17383H16.3164C15.7641 9.17383 15.3164 8.72611 15.3164 8.17383V6.17383C15.3164 5.62154 15.7641 5.17383 16.3164 5.17383Z" fill="white"/>
<path fill-rule="evenodd" clip-rule="evenodd" d="M16.3164 13.1738C14.6596 13.1738 13.3164 14.517 13.3164 16.1738V18.1738C13.3164 19.8307 14.6596 21.1738 16.3164 21.1738H18.3164C19.9733 21.1738 21.3164 19.8307 21.3164 18.1738V16.1738C21.3164 14.517 19.9733 13.1738 18.3164 13.1738H16.3164ZM18.3164 15.1738H16.3164C15.7641 15.1738 15.3164 15.6215 15.3164 16.1738V18.1738C15.3164 18.7261 15.7641 19.1738 16.3164 19.1738H18.3164C18.8687 19.1738 19.3164 18.7261 19.3164 18.1738V16.1738C19.3164 15.6215 18.8687 15.1738 18.3164 15.1738Z" fill="white"/>
<path fill-rule="evenodd" clip-rule="evenodd" d="M3.31641 16.1738C3.31641 14.517 4.65955 13.1738 6.31641 13.1738H8.31641C9.97326 13.1738 11.3164 14.517 11.3164 16.1738V18.1738C11.3164 19.8307 9.97326 21.1738 8.31641 21.1738H6.31641C4.65955 21.1738 3.31641 19.8307 3.31641 18.1738V16.1738ZM6.31641 15.1738H8.31641C8.86869 15.1738 9.31641 15.6215 9.31641 16.1738V18.1738C9.31641 18.7261 8.86869 19.1738 8.31641 19.1738H6.31641C5.76412 19.1738 5.31641 18.7261 5.31641 18.1738V16.1738C5.31641 15.6215 5.76412 15.1738 6.31641 15.1738Z" fill="white"/>
</svg>
