<svg width="17" height="17" viewBox="0 0 17 17" fill="none" xmlns="http://www.w3.org/2000/svg">
    <g clip-path="url(#clip0_1_25976)">
        <path d="M8.55859 16.3984C12.9769 16.3984 16.5586 12.8167 16.5586 8.39844C16.5586 3.98016 12.9769 0.398438 8.55859 0.398438C4.14032 0.398438 0.558594 3.98016 0.558594 8.39844C0.558594 12.8167 4.14032 16.3984 8.55859 16.3984Z"
              fill="url(#paint0_linear_1_25976)"/>
        <path d="M13.4729 9.66088C13.4122 11.0381 12.7776 12.2668 11.8122 13.1174C10.9413 13.887 9.80035 14.3461 8.5514 14.3461C7.30246 14.3461 6.16153 13.8803 5.29064 13.1174C4.32524 12.2668 3.69739 11.0313 3.62988 9.66088C4.96659 9.25582 6.68136 9.01953 8.54465 9.01953C10.4079 9.01953 12.1227 9.26257 13.4594 9.66088H13.4729Z"
              fill="url(#paint1_linear_1_25976)"/>
        <path d="M11.8194 13.1193C10.9485 13.8889 9.80756 14.348 8.55861 14.348C7.30967 14.348 6.16874 13.8822 5.29785 13.1193C6.16874 12.3497 7.30967 11.8906 8.55861 11.8906C9.80756 11.8906 10.9485 12.3564 11.8194 13.1193Z"
              fill="url(#paint2_linear_1_25976)"/>
        <path d="M4.04898 7.7836C3.91396 7.7836 3.78569 7.72284 3.70468 7.60132C3.57641 7.41229 3.63042 7.15575 3.81945 7.03423C4.55531 6.54141 5.41945 6.1971 6.03379 5.98782C5.50046 5.62326 4.75784 5.16419 4.25151 4.85364C4.05573 4.73887 3.99497 4.48233 4.10974 4.2933C4.22451 4.09752 4.48105 4.03676 4.67008 4.15153C4.88611 4.2798 6.77641 5.42073 7.20847 5.8528C7.31649 5.95406 7.35025 6.10934 7.31649 6.25111C7.27599 6.39288 7.16122 6.5009 7.01944 6.54141C7.00594 6.54141 5.43295 6.94647 4.27177 7.71609C4.20426 7.76335 4.12324 7.7836 4.04223 7.7836H4.04898Z"
              fill="#26304E"/>
        <path d="M13.075 7.7836C13.21 7.7836 13.3383 7.72284 13.4193 7.60132C13.5476 7.41229 13.4936 7.15575 13.3045 7.03423C12.5687 6.54141 11.7045 6.1971 11.0902 5.98782C11.6235 5.62326 12.3661 5.16419 12.8725 4.85364C13.0682 4.73887 13.129 4.48233 13.0142 4.2933C12.8995 4.09752 12.6429 4.03676 12.4539 4.15153C12.2379 4.2798 10.3476 5.42073 9.91549 5.8528C9.80748 5.95406 9.77372 6.10934 9.80748 6.25111C9.84798 6.39288 9.96275 6.5009 10.1045 6.54141C10.118 6.54141 11.691 6.94647 12.8522 7.71609C12.9197 7.76335 13.0007 7.7836 13.0817 7.7836H13.075Z"
              fill="#26304E"/>
    </g>
    <defs>
        <linearGradient id="paint0_linear_1_25976" x1="8.55859" y1="0.330927" x2="8.55859" y2="16.3309"
                        gradientUnits="userSpaceOnUse">
            <stop stop-color="#FDE970"/>
            <stop offset="0.5" stop-color="#FDCB56"/>
            <stop offset="1" stop-color="#F8A337"/>
        </linearGradient>
        <linearGradient id="paint1_linear_1_25976" x1="8.55815" y1="8.99253" x2="8.55815" y2="14.3259"
                        gradientUnits="userSpaceOnUse">
            <stop stop-color="#512512"/>
            <stop offset="1" stop-color="#8D4C1A"/>
        </linearGradient>
        <linearGradient id="paint2_linear_1_25976" x1="8.55861" y1="11.8771" x2="8.55861" y2="14.3413"
                        gradientUnits="userSpaceOnUse">
            <stop stop-color="#F6486A"/>
            <stop offset="0.5" stop-color="#DE274D"/>
            <stop offset="1" stop-color="#BD192B"/>
        </linearGradient>
        <clipPath id="clip0_1_25976">
            <rect width="16" height="16" fill="white" transform="translate(0.558594 0.398438)"/>
        </clipPath>
    </defs>
</svg>
