<svg width="25" height="25" viewBox="0 0 25 25" fill="none" xmlns="http://www.w3.org/2000/svg">
    <path d="M12.5586 2.39844C7.04859 2.39844 2.55859 6.88844 2.55859 12.3984C2.55859 17.9084 7.04859 22.3984 12.5586 22.3984C18.0686 22.3984 22.5586 17.9084 22.5586 12.3984C22.5586 6.88844 18.0686 2.39844 12.5586 2.39844ZM17.3886 15.9484C17.0786 16.3384 15.4186 18.2884 12.5986 18.2884H12.5486C9.8186 18.2684 8.16859 16.3984 7.86859 16.0184C7.60859 15.6984 7.65859 15.2284 7.97859 14.9684C8.29859 14.7084 8.76859 14.7484 9.02859 15.0784C9.25859 15.3584 10.5086 16.7684 12.5686 16.7884H12.5986C14.7686 16.7884 16.0686 15.1984 16.2086 15.0184C16.4686 14.6984 16.9386 14.6384 17.2586 14.8884C17.5886 15.1484 17.6486 15.6184 17.3886 15.9484ZM8.95858 9.13843C9.65858 9.13843 10.2286 9.69844 10.2286 10.3984C10.2286 11.0984 9.65858 11.6584 8.95858 11.6584C8.26858 11.6584 7.69859 11.0984 7.69859 10.3984C7.69859 9.69844 8.26858 9.13843 8.95858 9.13843ZM14.8886 10.3984C14.8886 9.69844 15.4586 9.13843 16.1586 9.13843C16.8586 9.13843 17.4186 9.69844 17.4186 10.3984C17.4186 11.0984 16.8586 11.6584 16.1586 11.6584C15.4586 11.6584 14.8886 11.0984 14.8886 10.3984Z"
          fill="#999999"/>
</svg>
