<svg width="13" height="12" viewBox="0 0 13 12" fill="none" xmlns="http://www.w3.org/2000/svg">
    <path d="M6.5 8C5.9484 8 5.5 8.4492 5.5 8.99822C5.5 9.5508 5.9484 10 6.5 10C7.0516 10 7.5 9.5508 7.5 8.99822C7.5 8.4492 7.0516 8 6.5 8Z"
          fill="white" fill-opacity="0.4"/>
    <path d="M6.5 7C7.05228 7 7.5 6.55228 7.5 6C7.5 5.44772 7.05228 5 6.5 5C5.94772 5 5.5 5.44772 5.5 6C5.5 6.55228 5.94772 7 6.5 7Z"
          fill="white" fill-opacity="0.4"/>
    <path d="M6.5 2C5.9484 2 5.5 2.4492 5.5 3.00178C5.5 3.5508 5.9484 4 6.5 4C7.0516 4 7.5 3.5508 7.5 3.00178C7.5 2.4492 7.0516 2 6.5 2Z"
          fill="white" fill-opacity="0.4"/>
</svg>
