<svg width="25" height="24" viewBox="0 0 25 24" fill="none" xmlns="http://www.w3.org/2000/svg">
    <path d="M12.3379 2C6.81504 2 2.33789 6.47715 2.33789 12C2.33789 17.5228 6.81504 22 12.3379 22C17.8607 22 22.3379 17.5228 22.3379 12C22.3379 6.47715 17.8607 2 12.3379 2Z"
          fill="#3E3E42"/>
    <path fill-rule="evenodd" clip-rule="evenodd"
          d="M11.6308 9.29289C12.0213 8.90237 12.6545 8.90237 13.045 9.29289L16.045 12.2929C16.4355 12.6834 16.4355 13.3166 16.045 13.7071C15.6545 14.0976 15.0213 14.0976 14.6308 13.7071L12.3379 11.4142L10.045 13.7071C9.65447 14.0976 9.02131 14.0976 8.63078 13.7071C8.24026 13.3166 8.24026 12.6834 8.63078 12.2929L11.6308 9.29289Z"
          fill="white"/>
</svg>
