<svg width="25" height="25" viewBox="0 0 25 25" fill="none" xmlns="http://www.w3.org/2000/svg">
<path d="M9.65622 11.7646C11.7362 11.7646 13.4262 10.0746 13.4262 7.99461C13.4262 5.91461 11.7362 4.22461 9.65622 4.22461C7.57622 4.22461 5.88623 5.91461 5.88623 7.99461C5.88623 10.0746 7.57622 11.7646 9.65622 11.7646Z" fill="white"/>
<path d="M16.9764 17.6532V19.3732C16.9764 19.7832 16.6464 20.1232 16.2264 20.1232H3.56641C3.15641 20.1232 2.81641 19.7832 2.81641 19.3732V17.6532C2.81641 15.2432 4.77641 13.2832 7.18641 13.2832H12.6064C13.0964 13.2832 13.5664 13.3632 14.0064 13.5232C14.0064 13.5232 14.0064 13.5132 14.0164 13.5232C15.7364 14.1032 16.9764 15.7332 16.9764 17.6532Z" fill="white"/>
<path d="M22.8164 16.7933V18.2033C22.8164 18.5333 22.5464 18.8033 22.2164 18.8033H18.4764V17.6533C18.4764 16.6433 18.2164 15.6833 17.7664 14.8533C17.5764 14.5133 17.3664 14.1933 17.1264 13.9033C16.9564 13.7133 16.7864 13.5233 16.6064 13.3633H19.3864C19.4964 13.3633 19.5964 13.3633 19.6964 13.3833C19.8264 13.3933 19.9564 13.4133 20.0864 13.4433C20.8464 13.6033 21.5064 14.0233 21.9964 14.5833C22.0764 14.6733 22.1564 14.7733 22.2264 14.8833C22.2364 14.8833 22.2364 14.8833 22.2264 14.8933C22.4164 15.1733 22.5664 15.4733 22.6664 15.8033C22.6964 15.9133 22.7264 16.0233 22.7464 16.1333C22.7964 16.3433 22.8164 16.5633 22.8164 16.7933Z" fill="white"/>
<path d="M17.1965 11.6245C18.8479 11.6245 20.1865 10.2858 20.1865 8.63453C20.1865 6.9832 18.8479 5.64453 17.1965 5.64453C15.5452 5.64453 14.2065 6.9832 14.2065 8.63453C14.2065 10.2858 15.5452 11.6245 17.1965 11.6245Z" fill="white"/>
</svg>
