<svg width="25" height="24" viewBox="0 0 25 24" fill="none" xmlns="http://www.w3.org/2000/svg">
    <path d="M12.5 2C6.99 2 2.5 6.49 2.5 12C2.5 17.51 6.99 22 12.5 22C18.01 22 22.5 17.51 22.5 12C22.5 6.49 18.01 2 12.5 2ZM12.5 6.10999C14.33 6.10999 15.82 7.59999 15.82 9.42999C15.82 11.26 14.33 12.75 12.5 12.75C10.67 12.75 9.18 11.26 9.18 9.42999C9.18 7.59999 10.67 6.10999 12.5 6.10999ZM12.5 20.5C10.05 20.5 7.84 19.46 6.29 17.8C5.95 17.44 5.64 17.04 5.36 16.61C7.26 15.16 9.83 14.33 12.5 14.33C15.17 14.33 17.74 15.16 19.64 16.61C19.36 17.04 19.05 17.44 18.71 17.8C17.16 19.46 14.95 20.5 12.5 20.5Z"
          fill="white"/>
</svg>
